<svg xmlns="http://www.w3.org/2000/svg" xmlns:xlink="http://www.w3.org/1999/xlink" version="1.1" width="1000" height="1000" viewBox="0 0 1000 1000" xml:space="preserve">
<desc>Created with Fabric.js 3.5.0</desc>
<defs>
</defs>
<rect x="0" y="0" width="100%" height="100%" fill="#ffffff"/>
<g transform="matrix(0.1573 0 0 0.096 388.7345 545.4413)" id="133266">
<path style="stroke: rgb(0,153,255); stroke-width: 5; stroke-dasharray: none; stroke-linecap: butt; stroke-dashoffset: 0; stroke-linejoin: miter; stroke-miterlimit: 4; is-custom-font: none; font-file-url: none; fill: none; fill-rule: nonzero; opacity: 1;" vector-effect="non-scaling-stroke" transform=" translate(-46.5001, -78.5)" d="M 2.6167 78.5 C 2.6167 57.2341 7.7391 38.064 15.8764 24.2946 C 24.0482 10.4665 34.9664 2.5 46.5001 2.5 C 58.0338 2.5 68.952 10.4665 77.1238 24.2946 C 85.2611 38.064 90.3835 57.2341 90.3835 78.5 C 90.3835 99.7659 85.2611 118.936 77.1238 132.705 C 68.952 146.533 58.0338 154.5 46.5001 154.5 C 34.9664 154.5 24.0482 146.533 15.8764 132.705 C 7.7391 118.936 2.6167 99.7659 2.6167 78.5 Z" stroke-linecap="round"/>
</g>
<g transform="matrix(0.5622 0 0 0.5622 499.9695 499.9749)" id="774526">
	<image style="stroke: none; stroke-width: 0; stroke-dasharray: none; stroke-linecap: butt; stroke-dashoffset: 0; stroke-linejoin: miter; stroke-miterlimit: 4; is-custom-font: none; font-file-url: none; fill: rgb(0,0,0); fill-rule: nonzero; opacity: 1;" vector-effect="non-scaling-stroke" xlink:href="https://cdn.pixelied.com/user-assets/3abee285-292e-43a1-9557-60daca866dab.png" x="-622.5" y="-512" width="1245" height="1024"/>
</g>
<g transform="matrix(0.5433 0 0 0.5433 359.6369 462.1979)" id="363271">
<circle style="stroke: rgb(0,0,0); stroke-width: 0; stroke-dasharray: none; stroke-linecap: butt; stroke-dashoffset: 0; stroke-linejoin: miter; stroke-miterlimit: 4; is-custom-font: none; font-file-url: none; fill: rgb(255,0,0); fill-rule: nonzero; opacity: 1;" vector-effect="non-scaling-stroke" cx="0" cy="0" r="8"/>
</g>
<g transform="matrix(0.5213 0 0 0.5213 378.4026 521.6975)" id="629048">
<circle style="stroke: rgb(0,0,0); stroke-width: 0; stroke-dasharray: none; stroke-linecap: butt; stroke-dashoffset: 0; stroke-linejoin: miter; stroke-miterlimit: 4; is-custom-font: none; font-file-url: none; fill: rgb(255,0,0); fill-rule: nonzero; opacity: 1;" vector-effect="non-scaling-stroke" cx="0" cy="0" r="8"/>
</g>
<g transform="matrix(0.5463 0 0 0.5463 378.6026 427.6022)" id="224103">
<circle style="stroke: rgb(0,0,0); stroke-width: 0; stroke-dasharray: none; stroke-linecap: butt; stroke-dashoffset: 0; stroke-linejoin: miter; stroke-miterlimit: 4; is-custom-font: none; font-file-url: none; fill: rgb(255,0,0); fill-rule: nonzero; opacity: 1;" vector-effect="non-scaling-stroke" cx="0" cy="0" r="8"/>
</g>
<g transform="matrix(0.0213 0 0 0.0213 682.1698 625.4628)" id="666571">
<path style="stroke: none; stroke-width: 1; stroke-dasharray: none; stroke-linecap: butt; stroke-dashoffset: 0; stroke-linejoin: miter; stroke-miterlimit: 4; is-custom-font: none; font-file-url: none; fill: rgb(255,0,0); fill-rule: nonzero; opacity: 1;" vector-effect="non-scaling-stroke" transform=" translate(-256, -255.999)" d="M 464 464 H 48 a 16 16 0 0 1 -14.07 -23.62 l 208 -384 a 16 16 0 0 1 28.14 0 l 208 384 A 16 16 0 0 1 464 464 Z" stroke-linecap="round"/>
</g>
<g transform="matrix(0.7451 0 0 0.7451 786.1469 282.7822)" id="375166">
<path style="stroke: none; stroke-width: 1; stroke-dasharray: none; stroke-linecap: butt; stroke-dashoffset: 0; stroke-linejoin: miter; stroke-miterlimit: 4; is-custom-font: none; font-file-url: none; fill: rgb(255,4,4); fill-rule: nonzero; opacity: 1;" vector-effect="non-scaling-stroke" transform=" translate(-11.9993, -11.9995)" d="M 9.362 9.158 c 0 0 -3.16 0.35 -5.268 0.584 c -0.19 0.023 -0.358 0.15 -0.421 0.343 s 0 0.394 0.14 0.521 c 1.566 1.429 3.919 3.569 3.919 3.569 c -0.002 0 -0.646 3.113 -1.074 5.19 c -0.036 0.188 0.032 0.387 0.196 0.506 c 0.163 0.119 0.373 0.121 0.538 0.028 c 1.844 -1.048 4.606 -2.624 4.606 -2.624 s 2.763 1.576 4.604 2.625 c 0.168 0.092 0.378 0.09 0.541 -0.029 c 0.164 -0.119 0.232 -0.318 0.195 -0.505 c -0.428 -2.078 -1.071 -5.191 -1.071 -5.191 s 2.353 -2.14 3.919 -3.566 c 0.14 -0.131 0.202 -0.332 0.14 -0.524 s -0.23 -0.319 -0.42 -0.341 c -2.108 -0.236 -5.269 -0.586 -5.269 -0.586 s -1.31 -2.898 -2.183 -4.83 c -0.082 -0.173 -0.254 -0.294 -0.456 -0.294 s -0.375 0.122 -0.453 0.294 C 10.671 6.26 9.362 9.158 9.362 9.158 z" stroke-linecap="round"/>
</g>
<g transform="matrix(0.7451 0 0 0.7451 718.4998 282.7821)" id="282891">
<path style="stroke: none; stroke-width: 1; stroke-dasharray: none; stroke-linecap: butt; stroke-dashoffset: 0; stroke-linejoin: miter; stroke-miterlimit: 4; is-custom-font: none; font-file-url: none; fill: rgb(255,4,4); fill-rule: nonzero; opacity: 1;" vector-effect="non-scaling-stroke" transform=" translate(-11.9993, -11.9995)" d="M 9.362 9.158 c 0 0 -3.16 0.35 -5.268 0.584 c -0.19 0.023 -0.358 0.15 -0.421 0.343 s 0 0.394 0.14 0.521 c 1.566 1.429 3.919 3.569 3.919 3.569 c -0.002 0 -0.646 3.113 -1.074 5.19 c -0.036 0.188 0.032 0.387 0.196 0.506 c 0.163 0.119 0.373 0.121 0.538 0.028 c 1.844 -1.048 4.606 -2.624 4.606 -2.624 s 2.763 1.576 4.604 2.625 c 0.168 0.092 0.378 0.09 0.541 -0.029 c 0.164 -0.119 0.232 -0.318 0.195 -0.505 c -0.428 -2.078 -1.071 -5.191 -1.071 -5.191 s 2.353 -2.14 3.919 -3.566 c 0.14 -0.131 0.202 -0.332 0.14 -0.524 s -0.23 -0.319 -0.42 -0.341 c -2.108 -0.236 -5.269 -0.586 -5.269 -0.586 s -1.31 -2.898 -2.183 -4.83 c -0.082 -0.173 -0.254 -0.294 -0.456 -0.294 s -0.375 0.122 -0.453 0.294 C 10.671 6.26 9.362 9.158 9.362 9.158 z" stroke-linecap="round"/>
</g>
<g transform="matrix(0.7451 0 0 0.7451 741.7868 534.8425)" id="356932">
<path style="stroke: none; stroke-width: 1; stroke-dasharray: none; stroke-linecap: butt; stroke-dashoffset: 0; stroke-linejoin: miter; stroke-miterlimit: 4; is-custom-font: none; font-file-url: none; fill: rgb(255,4,4); fill-rule: nonzero; opacity: 1;" vector-effect="non-scaling-stroke" transform=" translate(-11.9993, -11.9995)" d="M 9.362 9.158 c 0 0 -3.16 0.35 -5.268 0.584 c -0.19 0.023 -0.358 0.15 -0.421 0.343 s 0 0.394 0.14 0.521 c 1.566 1.429 3.919 3.569 3.919 3.569 c -0.002 0 -0.646 3.113 -1.074 5.19 c -0.036 0.188 0.032 0.387 0.196 0.506 c 0.163 0.119 0.373 0.121 0.538 0.028 c 1.844 -1.048 4.606 -2.624 4.606 -2.624 s 2.763 1.576 4.604 2.625 c 0.168 0.092 0.378 0.09 0.541 -0.029 c 0.164 -0.119 0.232 -0.318 0.195 -0.505 c -0.428 -2.078 -1.071 -5.191 -1.071 -5.191 s 2.353 -2.14 3.919 -3.566 c 0.14 -0.131 0.202 -0.332 0.14 -0.524 s -0.23 -0.319 -0.42 -0.341 c -2.108 -0.236 -5.269 -0.586 -5.269 -0.586 s -1.31 -2.898 -2.183 -4.83 c -0.082 -0.173 -0.254 -0.294 -0.456 -0.294 s -0.375 0.122 -0.453 0.294 C 10.671 6.26 9.362 9.158 9.362 9.158 z" stroke-linecap="round"/>
</g>
</svg>